<?xml version="1.0" standalone="no"?><!DOCTYPE svg PUBLIC "-//W3C//DTD SVG 1.1//EN" "http://www.w3.org/Graphics/SVG/1.1/DTD/svg11.dtd"><svg t="1629534958475" class="icon" viewBox="0 0 1024 1024" version="1.1" xmlns="http://www.w3.org/2000/svg" p-id="16430" xmlns:xlink="http://www.w3.org/1999/xlink" width="200" height="200"><defs><style type="text/css"></style></defs><path d="M697.984 85.333333C842.666667 85.333333 938.666667 188.458667 938.666667 336.768v350.464C938.666667 835.541333 842.666667 938.666667 697.984 938.666667H325.973333C181.333333 938.666667 85.333333 835.541333 85.333333 687.232V336.768C85.333333 188.586667 181.589333 85.333333 326.016 85.333333z m0 59.52H325.973333c-110.592 0-181.162667 75.690667-181.162666 191.914667v350.464c0 116.352 70.357333 191.914667 181.162666 191.914667h371.968c110.805333 0 181.162667-75.52 181.162667-191.914667V336.768c0-116.352-70.357333-191.914667-181.162667-191.914667zM328.277333 410.88c15.104 0 27.52 11.178667 29.525334 25.728l0.256 4.010667v272.298666a29.781333 29.781333 0 0 1-59.264 4.010667l-0.256-4.010667v-272.298666c0-16.426667 13.312-29.738667 29.738666-29.738667z m185.216-130.304c15.104 0 27.562667 11.178667 29.525334 25.728l0.256 4.053333v402.56a29.781333 29.781333 0 0 1-59.264 4.010667l-0.256-4.010667V310.357333c0-16.469333 13.312-29.781333 29.738666-29.781333z m182.186667 274.176c15.104 0 27.562667 11.178667 29.525333 25.728l0.256 4.010667v128.426666a29.781333 29.781333 0 0 1-59.264 4.010667l-0.256-4.010667v-128.426666c0-16.426667 13.312-29.738667 29.781334-29.738667z" fill="#ffffff" p-id="16431"></path></svg>