<?xml version="1.0" standalone="no"?><!DOCTYPE svg PUBLIC "-//W3C//DTD SVG 1.1//EN" "http://www.w3.org/Graphics/SVG/1.1/DTD/svg11.dtd"><svg t="1629549248931" class="icon" viewBox="0 0 1024 1024" version="1.1" xmlns="http://www.w3.org/2000/svg" p-id="2854" xmlns:xlink="http://www.w3.org/1999/xlink" width="200" height="200"><defs><style type="text/css"></style></defs><path d="M689.344 512l82.688 0 0 82.688-82.688 0L689.344 512zM505.344 512l82.688 0 0 82.688L505.344 594.688 505.344 512zM497.344 645.376l82.688 0 0 82.688L497.344 728.064 497.344 645.376zM313.344 645.376l82.688 0 0 82.688L313.344 728.064 313.344 645.376z" p-id="2855"></path><path d="M152.128 243.2l716.8 0 0 89.6-716.8 0 0-89.6Z" p-id="2856"></path><path d="M886.848 154.432l-107.52 0L779.328 64l-89.6 0 0 90.432-358.4 0L331.328 64l-89.6 0 0 90.432L135.68 154.432C96.064 154.432 64 186.56 64 226.112L64 888.32C64 927.872 96.064 960 135.68 960l751.168 0c39.552 0 71.68-32.128 71.68-71.68L958.528 226.112C958.592 186.56 926.464 154.432 886.848 154.432zM868.928 870.4l-716.8 0 0-448 716.8 0L868.928 870.4zM868.928 332.8l-716.8 0L152.128 243.2l716.8 0L868.928 332.8z" p-id="2857"></path></svg>