<?xml version="1.0" standalone="no"?><!DOCTYPE svg PUBLIC "-//W3C//DTD SVG 1.1//EN" "http://www.w3.org/Graphics/SVG/1.1/DTD/svg11.dtd"><svg t="1628254880374" class="icon" viewBox="0 0 1024 1024" version="1.1" xmlns="http://www.w3.org/2000/svg" p-id="3580" xmlns:xlink="http://www.w3.org/1999/xlink" width="200" height="200"><defs><style type="text/css"></style></defs><path d="M896 512a384 384 0 1 0-384 384 384 384 0 0 0 384-384z m64 0A448 448 0 1 1 512 64a448 448 0 0 1 448 448z" p-id="3581"></path><path d="M512 402.88l105.28-105.6a32 32 0 0 1 45.44 45.44l-128 128a32 32 0 0 1-45.44 0l-128-128a32 32 0 0 1 45.44-45.44z" p-id="3582"></path><path d="M416 512a32 32 0 0 1 0-64h192a32 32 0 0 1 0 64z m0 128a32 32 0 0 1 0-64h192a32 32 0 0 1 0 64z" p-id="3583"></path><path d="M480 480a32 32 0 0 1 64 0v256a32 32 0 0 1-64 0z" p-id="3584"></path></svg>