<?xml version="1.0" standalone="no"?><!DOCTYPE svg PUBLIC "-//W3C//DTD SVG 1.1//EN" "http://www.w3.org/Graphics/SVG/1.1/DTD/svg11.dtd"><svg t="1629549277992" class="icon" viewBox="0 0 1024 1024" version="1.1" xmlns="http://www.w3.org/2000/svg" p-id="3694" xmlns:xlink="http://www.w3.org/1999/xlink" width="200" height="200"><defs><style type="text/css"></style></defs><path d="M760.6272 10.24H144.0768s-77.6192 1.024-88.1664 89.1904v819.8144S55.0912 1013.76 160.4608 1013.76h717.824s83.2512-4.608 89.8048-90.4192V260.3008l-91.4432 68.608-1.6384 592.896-727.552-0.8192V101.0688h546.304L760.6272 10.24zM838.4512 53.6576l96.768 75.3664L955.392 102.0928S970.752 81.92 955.392 57.344c0 0-14.1312-23.2448-37.9904-36.7616 0 0-32.4608-17.7152-53.8624 3.6864l-25.088 29.3888z" p-id="3695"></path><path d="M904.6016 168.8576L739.84 387.4816s-14.7456 26.9312-40.448 39.2192l-72.9088 34.9184s-19.5584 9.8304-23.8592-17.1008l12.9024-80.2816s-1.2288-14.7456 18.3296-40.448L808.448 92.8768l96.1536 75.9808zM294.6048 579.1744h431.8208s14.1312-3.6864 13.5168 20.1728v40.448s-3.072 11.0592-19.6608 8.6016l-421.376 0.3072s-14.7456 0.8192-15.9744-13.2096v-46.592c0 0.1024 2.4576-9.728 11.6736-9.728zM294.6048 739.6352h431.8208s14.1312-3.6864 13.5168 20.1728v40.448s-3.072 11.0592-19.6608 8.6016l-421.376 0.3072s-14.7456 0.8192-15.9744-13.2096v-46.592c0 0.1024 2.4576-9.728 11.6736-9.728z" p-id="3696"></path></svg>